<?xml version="1.0" standalone="no"?>
<!DOCTYPE svg PUBLIC "-//W3C//DTD SVG 20010904//EN"
 "http://www.w3.org/TR/2001/REC-SVG-20010904/DTD/svg10.dtd">
<svg version="1.0" xmlns="http://www.w3.org/2000/svg"
 width="1280.000000pt" height="1280.000000pt" viewBox="0 0 1280.000000 1280.000000"
 preserveAspectRatio="xMidYMid meet">
<metadata>
Created by potrace 1.11, written by Peter Selinger 2001-2013
</metadata>
<g transform="translate(0.000000,1280.000000) scale(0.100000,-0.100000)"
fill="#000000" stroke="none">
<path d="M8190 12786 c-53 -8 -104 -22 -135 -38 -69 -36 -115 -47 -217 -51
-96 -5 -108 -9 -108 -39 0 -19 -2 -19 -23 -5 -30 19 -77 27 -200 32 -107 5
-134 14 -139 47 -4 31 -33 30 -33 -1 0 -30 -22 -38 -105 -36 -77 2 -307 16
-330 20 -8 1 -53 6 -100 10 -47 4 -103 9 -125 12 -69 9 -566 11 -659 2 -51 -5
-99 -15 -112 -24 -17 -11 -35 -14 -59 -9 -38 7 -41 3 -25 -26 9 -16 8 -19 -7
-13 -10 3 -23 10 -28 14 -16 12 -79 17 -97 7 -10 -5 -18 -15 -18 -23 0 -20
-15 -26 -78 -31 -165 -12 -248 -29 -285 -60 -29 -24 -52 -23 -74 4 -16 20 -78
10 -143 -23 -26 -13 -90 -34 -141 -45 -140 -32 -144 -34 -147 -61 -5 -36 -21
-47 -37 -26 -12 17 -15 17 -54 1 -22 -9 -48 -13 -56 -10 -9 3 -38 -9 -68 -29
-32 -21 -69 -36 -97 -39 -29 -3 -51 -12 -62 -26 -10 -12 -22 -19 -26 -16 -5 3
-29 -8 -53 -24 -24 -16 -50 -30 -57 -30 -7 0 -36 -17 -65 -38 -32 -24 -85 -49
-138 -66 -101 -32 -150 -66 -131 -89 11 -13 7 -14 -32 -12 -34 3 -52 -2 -77
-21 -31 -22 -63 -35 -121 -48 -17 -4 -29 -16 -36 -36 -6 -16 -15 -30 -19 -31
-131 -11 -149 -19 -259 -119 -79 -72 -165 -126 -247 -153 -24 -9 -23 -41 2
-34 11 3 22 -1 25 -9 6 -16 -23 -34 -53 -34 -12 0 -21 -4 -21 -10 0 -5 -7 -10
-15 -10 -21 0 -157 -94 -204 -142 -22 -21 -38 -45 -35 -52 4 -9 -10 -15 -45
-20 -40 -5 -54 -13 -71 -35 -11 -16 -20 -34 -20 -39 0 -6 -22 -24 -48 -40 -27
-16 -73 -48 -103 -71 -30 -22 -58 -41 -64 -41 -5 0 -48 -36 -95 -80 -47 -43
-100 -87 -117 -97 -22 -11 -33 -25 -33 -39 0 -15 -8 -24 -24 -28 -13 -3 -72
-51 -130 -106 -59 -55 -111 -100 -117 -100 -5 0 -17 -17 -26 -37 -8 -21 -35
-59 -59 -85 -91 -97 -123 -168 -125 -274 -3 -126 -50 -228 -223 -482 -46 -67
-92 -139 -101 -158 -9 -20 -36 -62 -59 -93 -48 -63 -116 -194 -116 -222 0 -10
-9 -23 -20 -29 -11 -6 -24 -29 -30 -53 -11 -38 -54 -124 -69 -137 -14 -11 -30
-61 -25 -74 3 -8 -15 -43 -39 -79 -25 -36 -50 -88 -58 -118 -7 -30 -14 -56
-15 -59 -1 -3 -5 -19 -9 -37 -5 -22 -17 -36 -35 -45 -21 -9 -28 -19 -28 -38 1
-34 -12 -80 -87 -310 -35 -107 -71 -239 -80 -293 -10 -56 -26 -115 -38 -135
-12 -20 -22 -52 -23 -72 -1 -19 -13 -64 -27 -100 -13 -36 -27 -90 -31 -120
-10 -85 -27 -212 -32 -240 -14 -76 -15 -104 -4 -131 10 -24 10 -37 -4 -72 -8
-23 -17 -60 -20 -82 -2 -22 -7 -73 -11 -113 -4 -40 -14 -80 -22 -87 -12 -12
-11 -20 9 -57 32 -61 32 -170 1 -214 -20 -28 -21 -33 -7 -58 18 -36 18 -50 -1
-66 -11 -9 -15 -29 -14 -71 1 -37 -3 -66 -13 -80 -12 -19 -12 -27 -2 -48 7
-17 14 -101 18 -229 4 -125 12 -218 20 -241 11 -32 11 -40 -2 -47 -19 -12 -18
-61 3 -159 26 -125 33 -177 40 -290 7 -113 15 -168 28 -184 6 -7 12 -36 13
-65 1 -41 21 -159 48 -291 13 -60 69 -277 83 -320 8 -27 36 -95 61 -150 25
-57 46 -120 48 -146 2 -25 21 -85 43 -135 21 -49 42 -103 45 -121 4 -18 15
-35 26 -38 12 -4 22 -23 31 -58 12 -50 25 -85 77 -197 13 -30 35 -82 48 -114
13 -33 28 -62 32 -65 20 -14 64 -85 118 -190 48 -94 66 -119 100 -140 22 -14
92 -84 155 -156 272 -309 479 -485 898 -764 102 -67 194 -123 205 -124 12 0
28 -6 36 -13 8 -7 42 -19 74 -28 66 -17 70 -20 94 -67 16 -33 19 -34 74 -32
51 1 61 -2 97 -34 76 -65 115 -158 126 -303 8 -98 12 -121 24 -133 21 -21 77
149 80 241 1 12 11 32 22 43 32 32 109 21 203 -29 41 -22 88 -43 105 -47 37
-8 141 -100 141 -125 0 -10 6 -23 14 -29 21 -17 46 13 46 55 0 19 4 34 8 34 5
0 46 -18 91 -40 l83 -40 -6 -53 c-4 -28 -9 -103 -12 -164 -6 -108 -6 -113 13
-113 36 0 62 42 86 141 31 125 39 139 81 139 37 0 107 -45 127 -82 9 -16 13
-93 15 -248 3 -304 6 -362 15 -388 7 -19 11 -21 33 -10 37 16 46 58 51 235 3
87 7 190 10 228 10 116 35 184 50 135 3 -11 14 -20 23 -20 10 0 35 -17 57 -38
70 -65 104 -85 145 -84 26 1 43 -4 56 -19 26 -29 97 -64 102 -51 2 6 11 8 20
5 57 -20 103 -46 120 -68 11 -14 28 -25 37 -25 9 0 26 -11 37 -25 15 -19 25
-23 48 -19 20 4 40 0 64 -15 22 -14 65 -25 123 -32 71 -9 92 -16 111 -35 20
-21 76 -42 157 -60 17 -3 100 -8 185 -10 174 -4 266 9 357 51 30 13 59 22 65
19 9 -6 28 -45 35 -74 9 -38 3 -307 -12 -515 -17 -226 -12 -327 15 -310 16 10
44 140 65 295 3 25 10 70 15 100 16 90 27 189 35 310 3 41 7 93 10 115 7 46
42 125 56 125 6 0 8 -4 4 -10 -3 -5 4 -19 15 -30 24 -24 64 -22 102 4 12 9 28
16 34 16 20 0 31 -51 27 -126 -3 -60 0 -75 20 -105 26 -40 73 -52 83 -22 19
59 32 76 83 114 67 51 76 64 72 109 -2 31 -1 33 13 20 8 -8 18 -31 21 -50 8
-48 26 -65 54 -51 11 7 21 19 21 29 1 9 7 31 14 47 12 29 13 29 24 10 6 -12
13 -61 17 -110 3 -50 9 -99 12 -110 8 -30 33 -54 50 -48 25 10 34 54 34 168
-1 129 10 158 51 137 13 -7 34 -28 47 -47 13 -19 35 -46 49 -60 23 -23 28 -25
38 -11 16 23 20 20 22 -16 2 -18 4 -46 7 -63 2 -16 7 -59 11 -95 10 -98 19
-130 35 -130 15 0 27 42 45 162 9 62 21 128 28 147 11 35 36 54 36 29 0 -38
22 -88 39 -88 34 0 51 25 66 94 19 92 42 115 123 125 127 15 134 1 147 -279 5
-114 8 -131 23 -172 14 -35 31 -44 49 -25 12 12 16 46 19 149 4 162 13 260 24
272 14 14 29 -37 31 -104 4 -140 66 -106 82 45 7 67 39 115 99 146 21 10 42
19 47 19 17 0 30 -62 35 -167 6 -124 19 -157 63 -161 39 -4 41 1 48 141 7 145
40 253 83 276 40 21 51 -8 58 -153 12 -232 47 -240 94 -21 32 149 69 221 135
266 22 15 41 26 42 25 1 -1 -4 -24 -13 -51 -28 -95 -37 -256 -16 -277 11 -11
51 43 53 72 1 8 2 22 3 30 2 8 3 32 4 52 1 22 12 48 25 65 13 15 38 53 54 83
17 30 35 56 41 58 15 5 29 -26 35 -82 12 -95 35 -87 104 38 53 95 103 149 131
144 9 -2 21 -23 28 -48 7 -25 19 -67 27 -95 8 -27 17 -82 20 -122 8 -101 23
-121 48 -61 15 38 16 40 28 128 17 126 56 179 168 231 74 34 189 66 221 61 29
-4 78 -72 93 -126 6 -22 8 -60 5 -83 -5 -36 -2 -44 15 -54 17 -9 25 -7 44 11
33 31 45 86 30 142 -6 25 -10 52 -8 60 26 108 26 109 58 104 39 -6 70 14 95
64 23 46 56 68 74 50 16 -16 11 -112 -9 -192 -18 -74 -15 -88 19 -88 51 0 109
100 136 237 17 85 39 119 84 127 20 4 48 20 63 36 l28 30 37 -17 37 -17 -2
-145 c-2 -163 6 -282 28 -395 18 -93 32 -123 48 -107 8 8 12 85 14 252 0 132
4 247 8 257 4 9 9 44 12 77 3 33 14 81 25 106 33 78 101 127 128 93 12 -13 11
-40 -5 -162 -24 -189 -24 -203 -4 -281 23 -95 20 -372 -4 -419 -33 -60 6 -98
50 -50 54 59 63 142 67 640 l3 337 229 229 c126 126 242 237 258 247 28 19 28
19 46 -5 10 -13 22 -42 26 -64 4 -23 9 -48 10 -56 15 -80 19 -281 9 -455 -11
-173 -11 -242 -3 -251 12 -12 63 12 76 37 9 17 10 44 6 89 -9 90 -6 138 13
174 12 24 16 57 14 141 -1 60 -4 126 -6 145 -3 19 -7 118 -10 220 -6 205 0
244 56 367 l31 68 -23 68 c-30 88 -22 105 66 127 22 5 49 16 60 24 20 14 20
15 0 13 -28 -3 -47 60 -50 163 -3 116 12 174 45 178 14 2 34 12 45 22 13 13
32 18 55 16 38 -3 70 8 70 25 0 6 -17 10 -37 9 -62 -3 -73 -1 -73 15 0 7 6 18
14 22 8 4 16 15 18 23 2 8 26 46 53 85 73 102 85 122 85 145 0 20 9 24 42 21
25 -3 35 25 42 119 8 122 27 180 51 160 9 -7 15 -7 23 2 17 22 52 149 72 263
10 61 33 143 49 184 39 93 71 261 76 388 2 65 10 119 24 161 28 85 30 109 15
167 -19 70 -18 126 1 119 13 -5 13 -1 1 35 -18 48 -27 205 -30 516 -2 127 -6
242 -10 257 -10 33 7 66 36 70 22 3 22 3 -6 29 -22 21 -25 27 -13 32 14 5 14
13 2 62 -13 57 -14 207 -1 236 5 12 1 18 -13 22 -15 3 -21 14 -22 34 -1 15 -3
39 -4 53 -1 14 -5 77 -9 140 -8 131 -13 176 -26 234 -12 54 -17 88 -25 166 -4
36 -9 79 -11 95 -2 17 -6 65 -10 108 -5 65 -3 77 9 77 31 0 47 151 25 234 -10
37 -9 50 2 72 8 15 13 38 11 52 -5 39 -48 132 -64 138 -8 3 -18 26 -22 52 -3
26 -8 58 -11 72 -2 14 -9 57 -15 95 -12 79 -29 142 -54 200 -30 67 -34 102
-17 126 20 29 88 58 137 59 34 0 43 5 62 33 28 41 31 68 14 100 -17 31 -9 57
19 57 11 0 20 5 20 11 0 14 -110 61 -132 56 -15 -4 -17 0 -12 29 3 19 2 34 -2
34 -3 0 -36 -10 -73 -23 -79 -27 -104 -25 -121 11 -35 78 -31 432 6 459 25 18
12 73 -36 153 -22 38 -40 71 -40 74 0 4 11 4 25 0 18 -4 25 -2 25 9 0 20 -27
40 -45 33 -13 -5 -14 -2 -2 22 9 17 13 56 12 102 -1 93 -10 123 -34 115 -27
-8 -67 38 -81 92 -6 26 -20 53 -31 61 -15 10 -19 25 -19 68 0 59 -19 88 -65
100 -14 3 -25 10 -25 15 0 5 10 5 23 0 41 -16 49 -1 31 58 -13 45 -18 52 -35
48 -19 -5 -20 -1 -18 46 3 91 2 94 -43 115 -57 27 -130 35 -155 17 -11 -8 -26
-28 -33 -45 -13 -32 -31 -38 -49 -16 -9 11 -6 17 16 31 26 17 26 19 8 26 -11
4 -41 11 -67 14 -57 7 -74 25 -154 163 -123 211 -325 516 -390 590 -26 29 -68
67 -93 85 -53 36 -64 48 -92 102 -12 22 -37 53 -55 68 -19 16 -70 81 -113 145
-153 226 -401 488 -566 601 -162 110 -380 221 -465 236 -113 20 -266 69 -415
135 -78 34 -142 54 -220 69 -116 21 -118 22 -260 47 -117 20 -268 24 -375 10z
m-1960 -495 c58 -5 65 -8 68 -29 4 -23 -25 -55 -40 -46 -19 12 -17 -22 3 -61
13 -24 21 -47 18 -50 -4 -3 -35 -7 -70 -9 l-64 -4 39 17 39 17 -39 32 c-40 33
-58 39 -69 22 -3 -5 -11 -7 -18 -5 -17 7 -32 -5 -51 -42 -19 -39 -20 -39 -53
-13 -30 24 -53 12 -53 -26 0 -27 -16 -30 -44 -9 -28 21 -36 19 -36 -11 0 -24
-2 -26 -32 -20 -95 20 -94 20 -117 -13 -12 -17 -19 -35 -16 -41 3 -5 0 -10 -7
-10 -23 0 -55 28 -62 55 -4 14 -10 25 -15 25 -17 0 -44 -41 -45 -70 -1 -37 -9
-38 -34 -5 -27 34 -37 31 -39 -11 -1 -20 -4 -38 -6 -41 -3 -2 -21 6 -40 17
-20 12 -41 19 -47 15 -5 -3 -10 -31 -10 -61 0 -57 -5 -63 -36 -39 -25 19 -44
19 -44 0 0 -21 -12 -19 -44 6 -34 26 -56 18 -56 -20 0 -22 8 -35 33 -52 37
-26 48 -40 41 -51 -12 -18 -39 -5 -92 46 -92 86 -121 93 -107 23 6 -30 6 -31
-8 -12 -8 11 -22 45 -32 75 -17 53 -49 100 -68 100 -5 0 -24 7 -43 16 -43 21
-46 54 -6 82 43 31 300 114 420 136 63 12 105 17 157 20 76 4 112 14 119 32 4
12 10 10 27 -7 16 -16 28 -20 52 -15 18 3 52 9 77 12 25 2 82 12 127 21 74 14
85 14 115 0 37 -17 87 -12 95 10 4 9 13 11 27 7 11 -4 50 -10 86 -13z m270 -5
c0 -15 -24 -66 -31 -66 -10 0 -12 31 -3 54 5 13 34 24 34 12z m-150 -40 c0
-14 -4 -27 -9 -31 -5 -3 -9 8 -9 25 1 36 18 41 18 6z m80 -28 c0 -7 -10 -29
-22 -48 -21 -33 -23 -34 -26 -12 -2 13 4 34 12 48 18 26 36 32 36 12z m278
-12 c3 -13 -1 -17 -14 -14 -11 2 -20 11 -22 22 -3 13 1 17 14 14 11 -2 20 -11
22 -22z m-1903 -158 c35 -16 30 -39 -16 -76 -14 -10 -18 -10 -23 3 -4 10 3 19
19 27 l25 11 -22 24 c-24 26 -21 28 17 11z m893 -119 c2 -9 -3 -19 -11 -22
-18 -7 -59 21 -51 34 9 16 58 6 62 -12z m3638 -76 c1 -23 11 -56 23 -76 12
-20 17 -38 12 -41 -14 -9 -63 20 -78 46 -16 30 -17 90 -1 106 24 24 43 9 44
-35z m-198 14 c2 -10 -3 -17 -11 -17 -18 0 -39 24 -30 34 12 12 38 2 41 -17z
m365 -60 c15 -10 30 -32 34 -48 4 -24 12 -30 42 -35 52 -8 92 -24 129 -51 25
-19 32 -31 32 -58 0 -18 5 -46 10 -61 6 -15 8 -29 6 -32 -8 -7 -55 26 -109 77
-83 79 -165 128 -201 122 -24 -4 -46 14 -60 50 -21 51 -20 54 7 66 25 12 67 1
110 -30z m-2395 12 c2 6 17 11 34 11 40 0 88 -48 88 -87 0 -99 81 -230 202
-326 34 -27 165 -91 228 -112 39 -13 68 -32 100 -64 69 -71 76 -90 62 -161 -7
-32 -15 -100 -18 -152 -6 -87 -4 -101 29 -208 63 -208 63 -211 41 -275 -19
-56 -19 -57 1 -71 29 -22 65 -28 78 -15 26 26 11 327 -20 406 -17 43 -25 289
-12 374 16 111 140 88 174 -32 32 -114 37 -294 9 -338 -10 -17 -3 -200 12
-314 2 -16 6 -57 10 -90 3 -33 7 -71 10 -85 2 -14 7 -77 10 -140 6 -100 8
-136 13 -197 2 -20 19 -15 31 7 24 45 30 153 30 614 1 265 5 488 10 496 18 29
33 -48 45 -225 2 -33 7 -166 10 -295 6 -286 14 -498 20 -525 2 -11 4 -29 4
-40 1 -11 10 -35 22 -54 24 -39 36 -33 50 25 9 39 12 443 4 584 -2 41 -7 165
-10 275 -8 268 -5 273 126 228 79 -26 177 -82 229 -129 37 -34 73 -44 85 -24
10 17 58 11 90 -10 17 -11 42 -20 56 -20 16 0 33 -10 47 -30 14 -18 38 -33 64
-41 24 -6 48 -19 55 -29 7 -10 46 -35 86 -54 50 -24 77 -44 89 -66 10 -17 23
-30 30 -29 25 3 37 -1 65 -24 26 -22 77 -43 96 -39 4 1 20 -19 37 -45 33 -55
152 -167 213 -202 58 -33 65 -38 143 -108 314 -280 411 -372 427 -406 10 -20
25 -37 32 -37 8 0 20 -6 27 -12 48 -46 168 -148 196 -167 18 -12 44 -45 58
-73 14 -28 62 -96 108 -152 45 -55 117 -148 161 -206 43 -58 96 -121 117 -141
25 -24 38 -45 38 -62 0 -25 22 -57 40 -57 4 0 6 -8 4 -18 -4 -14 23 -92 66
-187 5 -11 25 -69 45 -130 20 -60 49 -137 65 -171 15 -33 31 -76 35 -95 4 -19
23 -55 41 -80 64 -88 156 -293 253 -564 56 -155 72 -193 92 -211 23 -21 24
-45 4 -84 -15 -30 -15 -37 5 -134 5 -28 11 -80 13 -116 2 -36 11 -77 19 -90
10 -17 15 -56 17 -119 1 -57 6 -100 14 -109 6 -8 11 -23 9 -33 -2 -10 5 -33
14 -51 36 -67 53 -298 26 -331 -6 -7 -14 -45 -17 -83 -6 -70 -18 -143 -30
-179 -5 -14 2 -11 24 13 17 18 31 28 31 23 0 -17 -24 -65 -43 -86 -17 -19 -17
-20 3 -27 20 -7 28 -28 11 -28 -16 0 -41 -79 -41 -130 0 -63 -12 -93 -56 -138
-41 -43 -30 -54 23 -21 l36 23 -7 -30 c-15 -56 -20 -89 -32 -194 -12 -96 -25
-122 -70 -135 -37 -10 -39 -12 -36 -47 3 -37 4 -37 -90 -142 -20 -23 -22 -32
-8 -41 6 -3 10 3 10 15 0 16 5 19 24 16 18 -3 25 1 29 15 3 10 12 19 21 19 22
0 20 -7 -13 -49 -38 -49 -51 -75 -51 -104 0 -16 -14 -35 -41 -56 -24 -19 -38
-39 -35 -47 3 -7 -6 -27 -20 -44 -14 -16 -27 -38 -28 -47 -2 -12 -12 -18 -32
-19 -21 0 -28 -5 -26 -17 4 -23 -23 -72 -75 -137 -60 -75 -60 -75 -127 -165
-33 -44 -62 -82 -66 -85 -3 -3 -24 -30 -45 -60 -45 -62 -55 -74 -141 -175 -75
-86 -124 -125 -158 -125 -14 0 -35 -9 -47 -21 -19 -19 -22 -20 -39 -4 -10 9
-21 29 -25 43 -15 61 -71 162 -89 162 -12 0 -5 -36 14 -78 18 -40 18 -72 0
-72 -17 0 -112 95 -124 125 -11 26 -22 34 -60 44 -29 7 -46 17 -46 26 0 11
-11 15 -39 15 -32 0 -43 6 -64 33 -14 19 -62 56 -106 83 -53 32 -86 60 -98 81
-10 19 -25 33 -36 33 -10 0 -20 6 -23 14 -3 8 -31 28 -63 44 -73 37 -162 102
-156 112 9 15 -47 71 -69 69 -37 -2 -45 1 -51 21 -10 31 -50 66 -158 136 -116
76 -180 133 -214 191 -23 40 -39 49 -80 44 -53 -7 -192 146 -223 244 -7 22
-19 45 -27 52 -13 10 -14 19 -4 57 16 64 14 94 -7 105 -27 14 -60 -12 -68 -54
-9 -48 -36 -69 -88 -69 -53 1 -89 25 -113 78 -18 41 -182 211 -318 331 -44 39
-102 90 -129 115 -28 25 -68 61 -90 81 -126 113 -195 178 -321 301 -208 203
-236 228 -282 249 -23 11 -57 37 -76 59 -18 22 -54 49 -79 60 -24 10 -55 27
-69 37 -50 38 -113 66 -144 65 -26 -1 -31 2 -31 20 1 15 -9 24 -36 34 -20 7
-52 20 -70 28 -89 41 -153 58 -211 57 -32 -1 -62 -3 -66 -6 -4 -2 -23 -7 -42
-10 -19 -3 -41 -8 -49 -10 -54 -15 -70 -14 -70 7 0 12 -7 29 -16 39 -34 38
-46 166 -20 218 13 25 13 37 -3 153 -13 100 -6 286 12 306 12 13 13 22 5 36
-19 35 -28 89 -34 211 -3 66 -9 143 -13 170 -8 54 -7 145 3 380 14 325 24 440
46 555 26 130 30 166 36 309 5 105 10 135 34 195 51 128 85 283 95 441 9 144
15 253 20 355 9 184 16 244 32 275 8 17 17 55 19 85 3 54 17 158 34 255 9 51
14 85 25 165 3 25 8 61 10 80 9 64 6 234 -4 286 -6 28 -20 70 -32 93 -14 27
-19 50 -15 67 4 15 3 23 -3 20 -16 -10 -62 17 -77 45 -22 44 -9 62 41 54 38
-5 45 -3 64 21 20 26 24 27 55 16 18 -7 40 -10 47 -7 13 5 40 -9 97 -51 22
-16 22 -16 22 14 0 17 3 37 6 46 5 14 9 14 37 -1 22 -11 32 -12 35 -4z m-448
-8 c0 -14 -28 -33 -39 -27 -16 10 -1 36 20 36 10 0 19 -4 19 -9z m3020 -6 c35
-18 40 -37 8 -32 -35 6 -56 17 -62 33 -7 19 17 18 54 -1z m-4064 -30 c3 -14 3
-37 -1 -52 -6 -27 -7 -27 -21 -9 -15 21 -19 68 -7 79 13 13 23 7 29 -18z
m-168 -70 c14 -31 15 -55 3 -55 -15 0 -53 59 -46 70 11 18 32 11 43 -15z m498
13 c5 -7 7 -25 6 -40 -1 -16 1 -28 5 -27 22 4 31 -4 36 -30 4 -18 14 -32 27
-36 25 -8 26 -35 1 -35 -17 0 -18 -3 -5 -57 27 -121 38 -344 38 -763 0 -298
-1 -318 -21 -366 -12 -28 -34 -102 -49 -165 -15 -63 -42 -153 -60 -201 -34
-87 -37 -109 -49 -318 -3 -52 -7 -129 -10 -170 -8 -109 -15 -248 -20 -385 -3
-66 -7 -169 -10 -230 -3 -60 -7 -182 -10 -270 -2 -88 -7 -239 -10 -335 -3 -96
-7 -283 -10 -415 -12 -654 -17 -737 -50 -820 -30 -75 -65 -218 -65 -266 0 -41
-11 -53 -194 -203 -59 -48 -115 -101 -124 -116 -9 -15 -45 -48 -81 -72 -88
-58 -127 -93 -162 -144 -16 -23 -39 -46 -52 -49 -33 -11 -176 -107 -221 -149
-28 -27 -37 -42 -33 -57 3 -12 3 -19 1 -16 -12 12 -82 -18 -119 -52 -22 -20
-80 -58 -129 -85 -60 -34 -91 -58 -98 -75 -23 -58 -21 -57 -92 -63 -18 -2 -32
-10 -39 -25 -5 -12 -61 -53 -128 -92 -64 -39 -144 -93 -176 -121 -33 -29 -75
-55 -98 -61 -22 -5 -46 -12 -52 -14 -21 -7 -15 -32 12 -49 22 -14 23 -19 12
-36 -19 -32 -46 -35 -70 -9 l-21 23 -8 -31 c-8 -30 -30 -49 -93 -84 -16 -9
-35 -25 -40 -36 -8 -15 -16 -18 -38 -12 -25 7 -27 5 -27 -25 0 -36 -15 -56
-42 -56 -31 0 -88 -35 -173 -104 -44 -36 -87 -66 -96 -66 -9 0 -33 -20 -53
-45 -21 -25 -46 -45 -56 -45 -11 0 -24 -8 -29 -19 -6 -10 -22 -22 -37 -25 -38
-10 -17 -23 40 -25 37 -2 -4 -29 -84 -56 -57 -19 -93 -39 -127 -69 -27 -24
-65 -49 -85 -55 -21 -7 -38 -18 -39 -24 -2 -34 -10 -52 -36 -79 -36 -38 -74
-58 -112 -58 -23 0 -30 -5 -33 -22 -4 -32 -35 -33 -91 -4 -45 24 -47 25 -47 6
0 -11 5 -20 10 -20 15 0 38 -59 33 -81 -3 -11 -13 -19 -23 -19 -10 0 -20 -7
-24 -15 -14 -37 -116 -7 -210 62 -33 23 -66 43 -73 43 -21 0 -31 39 -28 103 2
44 8 63 24 78 28 27 27 32 -18 71 -53 45 -78 93 -84 160 -3 31 -12 71 -21 88
-10 20 -15 57 -15 100 1 54 -4 77 -27 121 -23 46 -30 74 -33 135 -1 6 -10 22
-22 35 -22 25 -21 36 7 111 16 41 17 52 5 95 -7 26 -14 55 -16 63 -5 26 7 32
22 11 18 -26 33 -27 33 -2 0 27 -27 51 -56 51 -36 0 -41 26 -38 180 3 170 11
247 30 284 17 36 17 73 -1 156 -21 94 -20 109 6 103 21 -6 22 -4 15 63 -3 38
-9 84 -12 102 -7 38 -3 40 29 8 14 -14 41 -39 61 -56 l36 -32 -7 88 c-10 128
-7 295 6 327 8 22 14 26 27 19 50 -28 71 25 32 78 l-21 29 37 41 c32 36 37 47
35 83 -3 50 10 51 59 4 25 -24 31 -27 26 -12 -12 31 -49 86 -89 130 -61 67
-69 97 -15 55 25 -20 50 -26 50 -12 -1 4 -7 18 -14 31 -12 21 -11 26 5 42 11
11 20 34 20 52 2 44 2 47 -6 90 -10 59 -28 33 -23 -34 2 -33 1 -59 -2 -59 -13
0 -37 35 -44 63 -6 27 -31 46 -43 33 -4 -4 1 -31 12 -61 10 -30 15 -58 11 -63
-4 -4 -29 17 -54 46 -55 62 -74 67 -66 18 4 -31 3 -34 -15 -29 -15 4 -26 -5
-45 -36 -29 -46 -31 -47 -52 -26 -24 24 -76 -2 -86 -43 -5 -18 -14 -32 -21
-32 -7 0 -28 25 -47 55 -53 83 -81 87 -63 9 12 -52 4 -61 -40 -45 -25 10 -26
11 -10 41 21 43 12 87 -31 151 -19 29 -33 56 -30 61 9 14 30 9 49 -12 24 -27
33 -25 37 8 3 26 5 27 50 25 60 -3 66 19 12 42 -35 14 -36 17 -31 52 8 50 19
58 78 55 l52 -1 -44 29 c-25 16 -55 40 -68 54 -26 28 -21 52 9 36 27 -14 41
10 45 77 8 121 24 159 72 168 10 2 19 4 20 4 1 1 -6 29 -16 64 -9 35 -19 93
-20 128 l-2 64 35 -38 c19 -22 41 -37 48 -34 16 5 12 54 -8 84 -19 29 -18 40
6 70 26 33 25 71 -1 99 l-21 22 21 21 c24 24 53 27 73 9 8 -7 31 -28 51 -47
l37 -35 -10 35 c-15 52 -12 87 10 117 11 15 26 60 35 100 21 101 28 112 75
113 47 2 44 1 95 18 127 42 170 75 139 106 -8 8 -25 15 -36 15 -12 0 -22 8
-25 21 -4 13 -12 19 -26 17 -20 -3 -30 -15 -42 -53 -7 -19 -7 -19 -16 3 -11
29 -18 172 -8 177 3 3 22 -16 42 -41 19 -25 37 -41 40 -37 3 4 -10 42 -29 83
-37 84 -39 79 41 96 48 11 58 41 24 73 l-23 21 25 0 c13 0 41 -11 61 -25 20
-14 39 -25 42 -25 14 0 4 30 -25 76 -47 74 -53 98 -38 151 l12 46 17 -43 c18
-46 43 -70 72 -70 20 0 39 37 33 66 -2 11 -4 24 -4 31 -1 7 -17 23 -37 37
l-35 24 22 16 c30 21 41 20 83 -5 33 -19 35 -19 44 -2 8 15 1 30 -34 77 -24
33 -42 61 -39 64 6 6 49 -22 96 -65 l40 -36 -7 55 c-4 37 -3 58 5 62 6 4 11
11 11 16 0 12 -50 62 -90 90 -19 14 -44 32 -54 42 -20 18 -19 18 1 18 33 0 53
-11 53 -27 0 -11 7 -14 24 -11 16 3 27 0 30 -9 8 -19 84 -52 107 -46 24 7 24
8 -6 60 -22 37 -24 44 -11 49 9 3 37 -8 63 -25 73 -48 92 -34 58 44 -33 76
-24 91 28 45 19 -16 41 -30 49 -30 19 0 58 29 39 30 -10 0 -9 6 4 27 29 44 24
91 -18 153 -43 63 -47 83 -14 78 15 -2 30 -19 48 -56 36 -75 44 -80 73 -53 18
17 36 23 65 23 39 -1 41 0 51 41 5 23 17 62 27 87 9 25 16 60 16 78 0 28 4 33
31 40 36 10 45 36 21 62 -14 15 -16 31 -12 72 5 57 20 102 35 112 13 8 66 -97
91 -180 26 -87 26 -93 2 -87 -26 7 -36 -15 -17 -36 16 -17 15 -19 -4 -24 -29
-7 -25 -28 15 -83 84 -118 88 -127 90 -235 3 -105 10 -138 14 -66 1 23 4 58 6
77 3 32 7 76 20 250 2 30 7 105 10 165 8 146 11 160 45 233 30 64 49 76 72 44
19 -27 38 -36 38 -18 0 8 -14 31 -32 51 l-31 36 21 22 22 21 -28 29 -27 29 28
-8 c16 -3 51 -17 78 -30 61 -30 77 -30 81 -1 2 18 9 22 33 19 36 -3 46 4 62
41 25 56 122 86 167 52 11 -8 22 -15 26 -15 3 0 35 27 70 60 36 33 71 60 79
60 10 0 12 12 9 50 -3 28 -3 50 -1 50 2 0 19 -11 37 -25 18 -14 45 -25 61 -25
26 0 27 2 22 35 -5 29 -2 38 17 50 23 15 41 14 89 -4 29 -11 77 0 77 19 0 6
-11 15 -24 21 -27 12 -46 48 -46 84 0 13 -11 37 -25 53 -33 39 -33 55 0 40 32
-14 59 -54 65 -97 4 -30 10 -36 49 -49 31 -10 51 -26 74 -58 17 -24 34 -44 38
-44 18 0 19 42 1 76 l-19 37 34 30 c32 28 33 33 27 74 l-6 44 33 -20 c19 -11
51 -23 72 -26 34 -7 37 -10 37 -42 0 -44 19 -40 43 10 27 57 31 105 12 128
-22 24 -13 49 15 42 23 -6 37 -27 44 -68 9 -50 22 -51 71 -1 45 45 47 46 75
31 26 -13 30 -13 44 1 17 16 14 26 -12 57 -25 29 -9 28 52 -3 31 -17 61 -30
66 -30 4 0 18 11 31 25 13 13 27 25 31 25 3 0 15 -16 27 -35 11 -19 25 -35 31
-35 11 0 28 38 34 73 1 12 8 23 15 25 6 2 18 19 26 38 8 19 19 34 24 34 6 0
14 0 19 0 4 0 7 -5 7 -12 0 -17 44 -38 79 -38 l28 0 -7 65 c-6 60 -5 65 12 58
10 -3 23 -9 28 -14 6 -4 29 -13 53 -20 23 -6 43 -18 43 -26 1 -7 3 -17 4 -23
1 -5 3 -19 4 -30 3 -47 50 -11 71 54 10 32 10 40 -1 47 -11 8 -10 12 5 24 24
18 52 19 62 3z m-670 -55 c-5 -27 10 -57 24 -48 15 10 38 -30 33 -57 -14 -73
-103 6 -103 91 0 32 7 41 32 41 15 0 17 -6 14 -27z m4544 -99 c4 -10 4 -28 0
-39 -6 -18 -8 -17 -22 10 -16 31 -14 59 5 52 5 -1 13 -12 17 -23z m-1079 -77
c42 -61 78 -142 69 -157 -22 -35 -110 80 -124 163 -10 52 15 50 55 -6z m1150
-8 c15 -29 -3 -46 -25 -24 -9 9 -16 23 -16 31 0 21 28 17 41 -7z m-912 -82 c1
-15 8 -41 16 -57 17 -33 7 -45 -27 -34 -36 11 -50 32 -51 76 -1 31 4 45 23 60
23 19 24 19 31 1 4 -10 8 -31 8 -46z m-5625 -566 c10 -16 -5 -41 -25 -41 -26
0 -49 48 -29 60 14 9 44 -2 54 -19z m-268 -125 c6 -16 12 -44 13 -63 1 -7 12
-13 25 -13 23 0 43 -26 30 -39 -13 -13 -122 -9 -150 5 -26 14 -30 14 -41 -2
-18 -25 -16 -33 11 -44 51 -19 42 -54 -15 -52 -44 1 -87 21 -94 43 -9 27 10
56 42 62 15 3 55 31 88 61 62 57 82 66 91 42z m7427 -147 c13 -16 31 -31 40
-33 47 -7 144 -136 264 -351 148 -266 174 -341 127 -359 -16 -6 -54 27 -54 48
0 8 -15 27 -32 42 -21 18 -34 39 -34 56 -2 38 -53 115 -91 138 -21 12 -47 46
-75 97 -23 43 -54 89 -68 103 -13 14 -25 27 -25 30 -6 37 -20 71 -41 95 -62
72 -70 83 -81 103 -16 27 -16 27 3 46 23 23 40 20 67 -15z m-7640 -94 c27 -56
20 -79 -25 -83 -31 -3 -38 -7 -43 -32 -5 -24 -10 -27 -34 -24 -19 3 -33 -2
-45 -15 -10 -11 -24 -17 -32 -14 -8 3 -14 0 -14 -7 0 -6 -5 -8 -10 -5 -6 4 -8
10 -6 14 3 4 6 27 7 50 3 46 12 56 49 56 15 0 26 6 26 15 1 8 2 23 3 32 0 9
16 31 33 47 29 27 35 29 53 17 11 -7 28 -30 38 -51z m8670 -32 c-3 -7 -14 -13
-25 -13 -19 0 -18 8 5 38 13 16 28 -3 20 -25z m-9652 -43 c-23 -20 -41 -26
-41 -14 0 11 34 33 50 33 10 0 8 -6 -9 -19z m779 -220 c5 0 14 -9 20 -20 15
-27 1 -25 -35 6 -19 16 -23 23 -12 20 10 -3 23 -6 27 -6z m239 -102 c52 -14
25 -28 -55 -29 -93 -1 -150 13 -138 32 7 12 145 10 193 -3z m-585 -310 c14
-20 14 -24 0 -38 -14 -13 -17 -13 -29 3 -13 18 -10 57 6 57 4 0 15 -10 23 -22z
m-56 -105 c8 -16 8 -26 4 -59 -3 -15 -70 -34 -120 -34 -73 0 -95 21 -44 42 15
7 34 20 42 30 15 19 17 18 43 -2 34 -27 56 -21 50 14 -6 30 12 35 25 9z m-134
-144 c89 -55 98 -89 15 -58 -71 27 -95 23 -91 -17 3 -24 -2 -33 -22 -42 -23
-10 -28 -9 -42 13 -11 18 -15 37 -11 61 13 79 67 94 151 43z m-173 -126 c2
-73 -3 -108 -17 -131 -14 -21 -13 -26 6 -57 25 -40 22 -50 -21 -59 -19 -4 -33
-13 -36 -26 -3 -11 -12 -21 -19 -21 -8 -1 -18 -3 -24 -4 -5 -1 -14 -3 -20 -4
-13 -1 -2 -28 32 -78 15 -23 28 -44 28 -47 0 -2 -15 0 -32 5 -18 5 -51 9 -73
9 -37 0 -38 -1 -23 -17 16 -15 16 -17 0 -29 -16 -11 -16 -14 1 -48 9 -20 17
-39 17 -41 0 -12 -79 -3 -109 13 -41 21 -41 38 -1 34 35 -3 36 -2 11 44 -22
40 -19 55 16 97 16 20 23 41 23 71 0 40 2 44 40 61 41 18 56 44 59 103 1 7 17
22 36 33 27 16 35 28 35 49 0 27 39 80 60 80 5 0 10 -17 11 -37z m9372 -50
c-3 -7 -14 -13 -25 -13 -19 0 -18 8 5 38 13 16 28 -3 20 -25z m-10052 -339 c9
-11 7 -14 -9 -14 -35 0 -78 20 -64 29 18 11 59 2 73 -15z m862 -10 c23 -7 21
-31 -4 -45 -26 -13 -89 -5 -133 18 l-31 17 25 6 c33 9 120 11 143 4z m-438
-194 c40 -45 36 -113 -9 -124 -20 -5 -28 -16 -37 -51 -6 -25 -12 -45 -13 -45
0 -1 -19 -3 -41 -6 -22 -4 -42 -8 -44 -10 -2 -2 10 -21 27 -42 65 -82 61 -114
-22 -156 -61 -31 -67 -40 -36 -56 11 -6 20 -15 20 -19 0 -16 -54 -28 -84 -20
-17 5 -32 6 -34 4 -8 -8 25 -34 51 -40 33 -9 53 -30 37 -40 -6 -4 -17 -4 -25
-1 -16 6 -16 6 -17 -86 0 -67 -13 -83 -60 -74 -37 6 -64 -6 -54 -23 4 -6 28
-22 54 -35 l46 -23 -37 -18 c-20 -9 -41 -23 -47 -30 -31 -37 -12 -132 33 -167
22 -17 22 -18 -19 -18 -77 0 -83 -33 -19 -118 60 -79 61 -112 2 -54 -54 53
-84 55 -93 7 -7 -37 0 -127 11 -145 10 -17 35 -11 67 15 23 19 34 23 48 15 32
-17 33 -30 2 -30 -26 0 -62 -21 -101 -58 -14 -14 -65 -11 -105 4 -29 11 -17
-14 45 -91 34 -42 59 -78 56 -81 -3 -3 -28 7 -56 22 -29 14 -55 23 -59 19 -4
-4 13 -25 37 -46 40 -36 42 -39 20 -40 -13 -1 -27 -1 -31 0 -16 2 -30 -45 -35
-118 -3 -42 -12 -98 -20 -126 -8 -27 -15 -63 -14 -80 0 -16 -9 -45 -20 -64
-20 -33 -20 -36 -3 -48 31 -23 13 -113 -23 -113 -10 0 -14 -6 -10 -20 3 -11
-4 -36 -14 -57 -10 -20 -19 -46 -19 -56 0 -46 -52 -107 -107 -125 -29 -10 -34
-8 -43 9 -6 10 -9 19 -7 19 2 0 -2 29 -8 65 -11 59 -11 68 7 105 l20 40 -32
61 c-29 56 -30 60 -11 54 35 -11 64 4 58 28 -3 12 -7 31 -10 42 -12 48 58 315
95 365 10 14 21 39 24 55 13 79 65 203 91 218 9 6 13 25 12 65 -3 70 4 103 46
213 19 48 36 103 39 123 20 128 85 365 146 531 12 33 23 65 24 70 2 6 6 17 9
25 4 8 16 42 28 75 32 89 76 182 103 218 13 18 31 49 39 69 10 25 23 38 39 40
36 5 65 -2 83 -22z m-100 -1110 c25 -22 53 -40 61 -40 8 0 14 -9 14 -20 0 -28
-17 -25 -87 17 -61 35 -79 55 -67 74 10 17 33 9 79 -31z m375 -468 c0 -15 -24
-32 -44 -32 -20 1 -20 1 3 20 24 21 41 26 41 12z m40 -57 c0 -18 -5 -25 -20
-25 -24 0 -26 13 -4 34 21 21 24 20 24 -9z m-160 -20 c7 -9 10 -18 7 -22 -7
-7 -65 15 -73 28 -9 16 53 10 66 -6z m-1200 -560 c10 -12 7 -15 -15 -21 -28
-7 -52 7 -41 25 10 16 41 14 56 -4z m7104 -511 c20 -20 20 -34 1 -34 -9 0 -15
-9 -15 -25 0 -13 -12 -36 -27 -52 -25 -24 -28 -25 -32 -8 -5 28 30 135 45 135
7 0 20 -7 28 -16z m-6384 -260 c20 -94 14 -214 -10 -214 -4 0 -10 9 -13 21 -9
34 -6 249 3 249 5 0 14 -25 20 -56z m4196 17 c27 -26 32 -58 20 -129 -8 -46
-7 -56 11 -80 35 -47 53 -36 89 56 18 46 38 90 45 98 12 14 14 14 20 -3 3 -10
6 -121 5 -248 -2 -250 3 -313 26 -326 14 -8 13 -13 -3 -47 -16 -32 -20 -68
-24 -203 -4 -159 -7 -188 -20 -230 -4 -12 0 -31 10 -46 16 -24 16 -26 -11 -54
-23 -24 -26 -32 -14 -39 9 -6 13 -23 12 -50 -2 -29 2 -46 13 -54 14 -10 13
-15 -4 -49 -19 -38 -19 -39 0 -95 22 -62 26 -135 10 -185 -14 -45 -20 -91 -26
-203 -8 -167 -9 -328 0 -356 6 -23 4 -28 -9 -28 -14 0 -16 -11 -13 -87 2 -49
0 -108 -5 -133 -16 -83 -16 -114 0 -132 14 -16 13 -20 -1 -36 -20 -22 -44 -89
-43 -122 1 -21 5 -25 29 -23 l27 2 -16 -29 c-16 -26 -16 -30 -1 -53 21 -32 10
-96 -13 -82 -19 11 -23 -11 -35 -180 -3 -49 -8 -119 -10 -155 -3 -36 -7 -103
-10 -150 -3 -47 -7 -110 -10 -140 -2 -30 -7 -95 -10 -144 -4 -50 -13 -102 -20
-117 -16 -29 -57 -48 -93 -43 -12 2 -39 -3 -59 -11 -42 -18 -53 -19 -53 -5 0
25 -43 98 -63 107 -35 16 -140 -23 -209 -79 -23 -18 -39 -21 -100 -20 -111 2
-249 22 -288 42 -20 10 -58 21 -85 25 -28 4 -105 25 -173 47 -67 22 -133 40
-145 41 -12 0 -31 7 -42 14 -11 7 -32 13 -47 13 -18 0 -28 5 -28 15 0 8 -24
28 -52 44 -59 33 -89 57 -225 179 -115 103 -121 113 -97 158 17 31 17 35 2 50
-9 9 -36 19 -60 21 -54 6 -68 18 -68 54 0 22 -5 29 -20 29 -11 0 -20 7 -20 15
0 19 -9 19 -32 -2 -17 -15 -19 -14 -36 25 -9 22 -29 48 -43 56 -34 20 -81 125
-87 194 -3 36 -9 52 -18 52 -18 0 -31 -34 -46 -121 -6 -38 -12 -68 -14 -66 -7
6 -15 73 -19 164 -3 53 -7 98 -9 100 -2 2 -15 -1 -30 -7 -24 -9 -80 -15 -114
-11 -7 0 -11 5 -7 10 3 6 -2 14 -11 19 -20 11 -18 12 71 58 81 43 96 65 99
150 1 38 5 74 9 80 3 6 31 16 61 23 60 13 83 31 42 31 -14 0 -35 9 -46 20
l-21 21 -25 -31 c-20 -23 -32 -29 -52 -26 -114 18 -163 25 -224 31 -132 13
-267 97 -293 183 -3 12 -12 22 -20 22 -16 0 -24 18 -40 93 -14 65 -7 77 31 52
l26 -17 -7 33 c-7 29 -5 31 14 26 31 -8 89 46 117 109 18 41 31 55 66 72 24
12 57 34 74 49 88 79 122 106 151 119 18 8 40 28 48 45 24 45 261 281 325 322
30 20 93 72 140 117 46 44 90 80 96 80 7 0 60 35 117 79 58 43 117 81 132 85
17 4 30 17 37 37 8 22 23 36 53 49 24 10 46 27 50 38 3 12 23 26 48 35 60 20
147 78 220 147 l64 60 28 -31 c31 -36 40 -30 50 33 8 46 28 63 71 59 30 -2 35
1 48 32 17 41 41 56 99 63 64 7 69 11 65 45 -3 27 0 32 22 35 14 1 59 21 100
44 129 72 133 71 118 -9 -4 -24 -6 -47 -3 -50 9 -9 108 45 151 83 29 24 43 46
47 70 9 54 91 168 141 194 27 13 45 9 72 -17z m1051 -276 c83 -156 126 -294
137 -448 8 -97 16 -211 21 -287 7 -102 18 -523 18 -690 1 -213 -9 -316 -33
-360 -55 -102 -59 -130 -16 -130 57 0 130 86 141 166 3 22 7 107 9 189 3 109
9 161 21 189 10 25 14 52 10 75 -13 84 -22 199 -30 391 -7 173 -23 470 -30
540 -3 33 -15 190 -20 253 -2 35 20 67 48 67 29 0 118 -42 136 -64 7 -9 15
-36 16 -61 4 -87 45 -93 66 -9 6 24 13 44 16 44 11 0 75 -79 93 -115 18 -37
22 -39 59 -36 51 3 118 -32 196 -103 33 -31 76 -60 96 -66 19 -5 71 -39 115
-76 43 -36 93 -72 110 -79 16 -7 45 -31 63 -54 18 -23 48 -48 66 -55 23 -10
37 -25 46 -50 7 -20 15 -37 19 -37 3 -1 15 -3 27 -4 19 -2 105 -62 123 -86 3
-3 28 -19 57 -34 29 -16 89 -56 135 -90 124 -91 219 -129 248 -99 12 13 0 64
-15 64 -7 0 -18 14 -24 30 -6 20 -17 30 -30 30 -29 0 -17 25 24 50 42 26 51
25 72 -6 12 -19 17 -52 19 -118 2 -70 9 -109 29 -162 37 -100 82 -183 127
-231 27 -30 38 -52 39 -75 3 -89 30 -110 58 -45 10 24 26 47 35 50 35 14 78
-19 121 -88 11 -19 35 -43 52 -53 18 -9 80 -62 140 -117 197 -183 230 -211
264 -225 15 -7 33 -27 43 -50 19 -43 47 -64 122 -89 38 -12 53 -24 66 -49 23
-48 9 -80 -66 -148 -84 -77 -171 -117 -261 -122 -84 -5 -98 -14 -83 -48 12
-27 10 -33 -18 -38 -51 -11 -82 -21 -119 -39 -56 -27 -106 -67 -100 -78 4 -5
-19 -9 -55 -8 -34 1 -65 -2 -69 -7 -5 -5 -16 -33 -26 -62 -9 -29 -23 -56 -30
-58 -7 -3 -29 2 -50 10 -53 23 -67 21 -164 -23 -97 -43 -174 -67 -242 -75 -26
-3 -54 -9 -63 -12 -14 -5 -14 -7 1 -22 15 -15 14 -17 -12 -28 -34 -14 -65 -7
-65 14 0 12 -4 11 -22 -6 -27 -24 -66 -40 -117 -48 -20 -2 -47 -7 -61 -9 -14
-3 -43 -7 -65 -11 -22 -3 -48 -7 -57 -10 -9 -3 -27 -7 -40 -9 -13 -3 -45 -9
-73 -15 -97 -19 -168 -28 -270 -35 -197 -13 -218 -21 -264 -96 l-21 -34 0 32
c0 53 -18 56 -234 48 -105 -4 -240 -8 -299 -11 -170 -6 -203 25 -221 206 -3
30 -7 78 -10 105 -6 58 -13 143 -22 273 -6 87 -5 96 16 125 13 18 29 36 37 40
19 11 16 32 -12 102 -31 79 -35 137 -41 630 -3 215 -6 427 -7 472 -2 72 1 85
21 113 16 22 22 40 19 58 -9 48 -18 85 -22 92 -18 29 -34 791 -20 950 2 25 7
61 10 80 l7 35 24 -30 c13 -16 41 -61 61 -100z m2591 -437 c3 -17 -13 -19 -35
-5 -21 13 -15 29 9 25 13 -2 24 -11 26 -20z m-7160 -90 c17 -17 15 -28 -7 -28
-19 0 -35 23 -24 34 9 9 18 7 31 -6z m15 -282 c6 -15 -11 -36 -29 -36 -14 0
-23 20 -16 38 6 16 39 15 45 -2z m-716 -225 c7 -11 22 -59 34 -108 12 -48 40
-128 61 -178 22 -49 51 -118 63 -152 13 -35 38 -84 56 -109 18 -26 40 -72 50
-103 9 -31 34 -101 54 -155 20 -55 34 -105 31 -113 -3 -7 -17 -13 -30 -13 -49
0 -144 145 -216 329 -85 219 -143 413 -148 497 -6 103 15 153 45 105z m948
-267 c50 -50 66 -74 49 -74 -8 0 -94 91 -105 113 -17 30 0 19 56 -39z m333
-76 c16 -16 15 -38 -2 -38 -13 0 -26 20 -26 41 0 13 14 11 28 -3z m6782 -288
c11 -7 6 -10 -20 -10 -26 0 -31 3 -20 10 8 5 17 10 20 10 3 0 12 -5 20 -10z
m34 -73 c-7 -20 -34 -23 -34 -4 0 19 22 39 32 29 5 -5 6 -16 2 -25z m110 -29
c9 -12 16 -31 16 -41 0 -14 -5 -17 -22 -11 -26 8 -38 22 -38 45 0 34 23 38 44
7z m-6619 -667 c22 -10 46 -25 53 -33 11 -13 8 -16 -18 -20 -49 -7 -140 34
-140 64 0 14 64 8 105 -11z m-758 -106 c41 -41 36 -62 -8 -39 -39 20 -71 52
-64 64 12 19 37 10 72 -25z m1578 -499 c0 -22 -14 -29 -33 -18 -17 12 -4 44
17 40 9 -2 16 -12 16 -22z m2969 -422 c9 -4 21 -15 27 -26 10 -18 9 -19 -20
-4 -47 25 -52 47 -7 30z m-1383 -630 c9 -11 8 -14 -4 -14 -26 0 -47 11 -47 25
0 16 35 9 51 -11z"/>
<path d="M8890 5902 c0 -22 21 -34 39 -23 9 6 9 10 -1 18 -30 23 -38 24 -38 5z"/>
<path d="M8890 5713 c0 -28 3 -34 10 -23 13 20 13 47 0 55 -6 4 -10 -9 -10
-32z"/>
<path d="M3905 10766 c16 -25 45 -42 45 -27 0 9 -43 51 -53 51 -4 0 0 -11 8
-24z"/>
<path d="M3390 10439 c0 -15 7 -32 15 -39 12 -10 15 -9 15 7 0 10 -7 28 -15
39 -14 18 -14 18 -15 -7z"/>
<path d="M2523 8913 c-13 -9 -23 -19 -23 -23 0 -12 37 0 50 15 16 20 -2 25
-27 8z"/>
<path d="M2319 6979 c-12 -7 -11 -11 3 -26 14 -13 21 -14 29 -6 16 16 -12 45
-32 32z"/>
<path d="M2296 6882 c-2 -4 2 -16 10 -27 12 -16 16 -17 23 -6 5 8 7 20 4 28
-6 14 -29 18 -37 5z"/>
<path d="M2195 6471 c-3 -5 5 -17 17 -25 25 -18 38 -20 38 -7 0 14 -48 42 -55
32z"/>
<path d="M2030 6201 c0 -18 4 -30 9 -26 6 3 8 15 6 27 -7 34 -15 34 -15 -1z"/>
<path d="M2005 5940 c-3 -5 2 -24 11 -42 10 -18 17 -48 15 -65 -1 -27 2 -33
18 -33 34 0 32 72 -4 126 -16 25 -30 30 -40 14z"/>
<path d="M2064 5733 c7 -32 7 -32 -28 -26 -31 5 -36 3 -36 -15 0 -35 62 -45
80 -13 15 28 12 57 -6 72 -15 12 -16 10 -10 -18z"/>
<path d="M2260 4436 c0 -15 27 -29 40 -21 5 3 7 12 3 20 -7 19 -43 20 -43 1z"/>
<path d="M9189 3050 c-10 -7 -10 -11 0 -24 12 -14 41 -23 41 -12 0 2 3 11 6
19 6 17 -27 29 -47 17z"/>
<path d="M12340 8676 c0 -7 7 -19 15 -26 12 -10 16 -9 21 3 3 9 3 21 -1 27 -9
15 -35 12 -35 -4z"/>
<path d="M12411 6121 c-1 -27 2 -32 11 -23 8 8 8 17 0 34 -10 22 -11 21 -11
-11z"/>
<path d="M425 5130 c-4 -6 7 -10 25 -10 18 0 29 4 25 10 -3 6 -15 10 -25 10
-10 0 -22 -4 -25 -10z"/>
<path d="M393 5003 c-18 -7 -16 -30 3 -37 17 -6 54 19 54 36 0 9 -37 10 -57 1z"/>
</g>
</svg>
